<svg width="100" height="91" viewBox="0 0 100 91" fill="none" xmlns="http://www.w3.org/2000/svg">
<path d="M18.8104 42.835C18.9204 42.835 18.9754 42.8212 18.9754 42.7937C18.8929 42.4912 18.8517 42.1887 18.8517 41.8862C18.8792 41.5837 18.8929 41.2812 18.8929 40.9787C18.9204 40.2912 18.9342 39.6037 18.9342 38.9162C18.9342 38.2011 18.8242 37.5686 18.6042 37.0186C16.8166 37.0186 15.1254 37.0461 13.5303 37.1011C11.9628 37.1561 10.2577 37.1561 8.4152 37.1011C8.30519 37.0461 8.25019 36.9224 8.25019 36.7299C8.27769 36.5098 8.31894 36.2761 8.37395 36.0286C8.45645 35.7811 8.53895 35.5336 8.62145 35.2861C8.73145 35.0386 8.81396 34.8461 8.86896 34.7086C9.36397 34.1035 9.95523 33.5948 10.6427 33.1823C11.3578 32.7423 12.0865 32.3298 12.829 31.9447C13.5991 31.5597 14.3553 31.1747 15.0979 30.7897C15.8679 30.4047 16.5554 29.9509 17.1604 29.4284C17.7929 28.9059 18.3154 28.3009 18.7279 27.6134C19.1679 26.8984 19.4292 26.0321 19.5117 25.0146C19.5392 24.4646 19.5392 23.8596 19.5117 23.1995C19.4842 22.512 19.4567 21.8795 19.4292 21.302C19.2917 19.817 18.8929 18.4557 18.2329 17.2181C17.5729 15.9806 16.6241 15.0456 15.3866 14.4131C14.6441 14.1106 13.7091 13.9043 12.5815 13.7943C11.4815 13.6568 10.354 13.6431 9.19896 13.7531C8.04394 13.8631 6.95766 14.1106 5.94014 14.4956C4.92262 14.8806 4.13885 15.4306 3.58883 16.1456C2.57131 17.2731 1.88379 18.6757 1.52629 20.3532C1.19628 22.0033 1.19628 23.7771 1.52629 25.6746V25.7571H1.56754C2.50256 25.8671 3.43758 25.8946 4.3726 25.8396C5.33512 25.7846 6.43515 25.6883 7.67268 25.5508H7.71393V25.4683C7.74143 24.9733 7.78268 24.4371 7.83768 23.8596C7.92018 23.282 8.05769 22.7458 8.25019 22.2508C8.4702 21.7283 8.7727 21.302 9.15771 20.972C9.57022 20.642 10.1065 20.477 10.7665 20.477C11.399 20.5595 11.894 20.8482 12.2515 21.3432C12.6365 21.8108 12.8566 22.3608 12.9116 22.9933C12.9666 23.6258 12.8703 24.2583 12.6228 24.8908C12.4028 25.5233 12.0178 26.0184 11.4678 26.3759C10.7528 26.9534 10.0102 27.4621 9.24022 27.9021C8.4977 28.3422 7.74143 28.7959 6.97141 29.2634C6.2289 29.7309 5.48638 30.2397 4.74386 30.7897C4.02884 31.3122 3.34133 31.9447 2.68131 32.6873C2.2413 33.4023 1.92504 34.1723 1.73254 34.9973C1.56754 35.7948 1.45753 36.6336 1.40253 37.5136C1.34753 38.3661 1.32003 39.2462 1.32003 40.1537C1.34753 41.0612 1.32003 41.9825 1.23753 42.9175C1.23753 42.9725 1.25128 43.0138 1.27878 43.0413H3.13507L18.8104 42.835ZM38.7778 13.8768C38.3653 13.8493 37.8978 13.8356 37.3753 13.8356C36.8803 13.8081 36.3715 13.8218 35.849 13.8768C35.3265 13.9043 34.8177 13.9593 34.3227 14.0418C33.8552 14.1243 33.4565 14.2206 33.1265 14.3306C33.209 16.3106 33.2365 18.1257 33.209 19.7757C33.209 21.4257 33.1265 23.1995 32.9615 25.0971H32.9202C32.2327 25.1521 31.4902 25.2208 30.6926 25.3033C29.8951 25.3583 29.1526 25.3033 28.4651 25.1383H28.4238C28.0938 23.3783 27.9288 21.6045 27.9288 19.817C27.9288 18.0294 27.8051 16.1869 27.5576 14.2893C27.1726 14.1793 26.7601 14.1243 26.32 14.1243C25.88 14.1243 25.4263 14.1381 24.9588 14.1656C24.5188 14.1931 24.065 14.2206 23.5975 14.2481C23.1575 14.2756 22.7312 14.2481 22.3187 14.1656H22.2362H22.195V14.2068C22.1675 15.6094 22.1399 17.1906 22.1124 18.9507C22.1124 20.6832 22.1262 22.4983 22.1537 24.3958C22.1812 26.2659 22.2087 28.1359 22.2362 30.0059C22.2912 31.876 22.3462 33.6498 22.4012 35.3273C22.4562 36.9774 22.5112 38.4761 22.5662 39.8237C22.6487 41.1437 22.7175 42.1887 22.7725 42.9587C23.02 42.8212 23.3775 42.7662 23.845 42.7937C24.34 42.8212 24.8625 42.8625 25.4125 42.9175C25.9625 42.9725 26.5126 43 27.0626 43C27.6126 43 28.0526 42.9037 28.3826 42.7112C28.5201 41.8312 28.5889 40.9512 28.5889 40.0712C28.6164 39.1637 28.6164 38.2424 28.5889 37.3074C28.5613 36.3723 28.5338 35.4373 28.5063 34.5023C28.5063 33.5673 28.5476 32.6185 28.6301 31.656C29.4276 31.4635 30.2251 31.3672 31.0227 31.3672C31.8202 31.3672 32.6177 31.436 33.4152 31.5735L33.4565 31.6147C33.5665 32.4948 33.6352 33.416 33.6627 34.3785C33.6902 35.3411 33.704 36.3036 33.704 37.2661C33.7315 38.2286 33.759 39.2049 33.7865 40.1949C33.8415 41.1575 33.9377 42.0925 34.0752 43H34.1165C34.4465 42.9725 34.8452 42.9587 35.3128 42.9587C35.8078 42.9587 36.3028 42.9587 36.7978 42.9587C37.3203 42.9587 37.8428 42.945 38.3653 42.9175C38.9153 42.89 39.4241 42.835 39.8916 42.7525L38.7778 13.8768ZM56.063 28.5209C55.953 28.0534 55.8017 27.4209 55.6092 26.6234C55.4167 25.8258 55.2104 24.9458 54.9904 23.9833C54.7704 23.0208 54.5367 22.017 54.2892 20.972C54.0692 19.927 53.8492 18.9507 53.6292 18.0432C53.4366 17.1081 53.2441 16.2831 53.0516 15.5681C52.8866 14.8256 52.7629 14.2756 52.6804 13.9181C51.7729 14.0006 51.0303 14.0556 50.4528 14.0831C49.9028 14.0831 49.4491 14.0831 49.0915 14.0831C48.734 14.0831 48.4453 14.0831 48.2253 14.0831C48.0053 14.0831 47.799 14.0968 47.6065 14.1243C46.9465 16.3244 46.3415 18.5382 45.7915 20.7657C45.2415 22.9933 44.7327 25.1383 44.2652 27.2009C43.7977 29.2634 43.3852 31.216 43.0277 33.0585C42.6976 34.8736 42.4089 36.4823 42.1614 37.8849C41.9139 39.2874 41.7214 40.4287 41.5839 41.3087C41.4464 42.1887 41.3501 42.725 41.2951 42.9175C41.3226 42.945 41.3501 42.9587 41.3776 42.9587C43.2477 42.9312 44.6227 42.945 45.5027 43C46.3827 43.055 46.9327 43.055 47.1528 43C47.1803 43 47.194 43 47.194 43C47.2215 42.9725 47.249 42.9587 47.2765 42.9587C47.524 42.4912 47.7165 41.955 47.854 41.35C47.9915 40.7449 48.1153 40.1262 48.2253 39.4937C48.3628 38.8337 48.4865 38.2149 48.5965 37.6374C48.734 37.0324 48.899 36.5098 49.0915 36.0698C49.3941 36.0698 49.6278 36.0698 49.7928 36.0698C49.9853 36.0423 50.1503 36.0286 50.2878 36.0286C50.4528 36.0286 50.6316 36.0286 50.8241 36.0286C51.0166 36.0286 51.2916 36.0561 51.6491 36.1111C51.8416 36.5236 52.0204 37.0186 52.1854 37.5961C52.3504 38.1736 52.5016 38.7787 52.6391 39.4112C52.8041 40.0437 52.9554 40.6624 53.0929 41.2675C53.2579 41.8725 53.4229 42.395 53.5879 42.835H53.6292C54.5092 43.0275 55.4442 43.1375 56.4342 43.165C57.4242 43.22 58.3318 43.165 59.1568 43V42.9587L56.063 28.5209ZM51.8554 31.2022C51.3329 31.2022 50.8103 31.216 50.2878 31.2435C49.7653 31.2435 49.2703 31.2297 48.8028 31.2022C48.9953 29.7997 49.1603 28.4934 49.2978 27.2834C49.4628 26.0734 49.6003 25.0696 49.7103 24.2721C49.8478 23.4745 49.9853 22.952 50.1228 22.7045C50.2878 22.4295 50.4391 22.5258 50.5766 22.9933C50.7416 23.4608 50.9203 24.3546 51.1128 25.6746C51.3328 26.9946 51.5804 28.8372 51.8554 31.2022ZM76.5067 43.2063C76.9742 43.2063 77.3042 43.1788 77.4967 43.1238C77.6892 43.0688 77.813 43.0275 77.868 43V42.175C77.868 41.625 77.8542 41.075 77.8267 40.5249C77.8267 39.9749 77.8267 39.4249 77.8267 38.8749C77.8267 38.1049 77.8267 37.3486 77.8267 36.6061C77.8542 35.8636 77.868 35.0936 77.868 34.296C77.868 33.1135 77.868 31.931 77.868 30.7485C77.868 29.5659 77.8542 28.3972 77.8267 27.2421V13.9593C77.0292 13.7943 76.1217 13.7118 75.1041 13.7118C74.0591 13.7118 73.0691 13.7943 72.1341 13.9593C72.1066 14.6468 72.0791 15.2931 72.0516 15.8981C72.0516 16.4756 72.0516 17.0531 72.0516 17.6307C72.0516 18.6207 72.0653 19.597 72.0928 20.5595C72.1478 21.4945 72.1753 22.512 72.1753 23.612C72.1753 24.0796 72.1478 24.5608 72.0928 25.0558C72.0378 25.5508 71.9691 25.8258 71.8866 25.8809C71.8591 25.8809 71.7628 25.7296 71.5978 25.4271C71.4328 25.0971 71.2266 24.7121 70.979 24.2721C70.759 23.8046 70.5115 23.2958 70.2365 22.7458C69.9615 22.1683 69.7003 21.632 69.4528 21.137C69.2053 20.6145 68.9853 20.1607 68.7927 19.7757C68.6002 19.3907 68.4765 19.1294 68.4215 18.9919C68.174 18.4144 67.954 17.9469 67.7615 17.5894C67.5965 17.2044 67.4315 16.8606 67.2665 16.5581C67.129 16.2556 66.9777 15.9394 66.8127 15.6094C66.6477 15.2794 66.4689 14.8668 66.2764 14.3718C66.2764 14.3168 66.1252 14.2618 65.8227 14.2068C65.5477 14.1518 65.2177 14.1106 64.8327 14.0831C64.4476 14.0281 64.0626 14.0006 63.6776 14.0006C63.2926 13.9731 63.0176 13.9593 62.8526 13.9593C62.5226 13.9593 62.1926 13.9731 61.8626 14.0006C61.5601 14.0281 61.2713 14.0693 60.9963 14.1243C60.8588 15.8844 60.7626 17.6994 60.7076 19.5695C60.6526 21.412 60.6251 23.282 60.6251 25.1796C60.6251 27.7646 60.6388 30.2397 60.6663 32.6048C60.7213 34.9698 60.7488 37.4586 60.7488 40.0712V42.9587C61.3813 42.9587 62.0276 43 62.6876 43.0825C63.3751 43.165 64.0489 43.2063 64.7089 43.2063C65.0114 43.2063 65.3139 43.1925 65.6164 43.165C65.9189 43.1375 66.2214 43.0825 66.5239 43C66.4964 42.5325 66.4827 42.01 66.4827 41.4325C66.4827 40.8274 66.4827 40.2087 66.4827 39.5762C66.4827 38.4211 66.4827 37.2249 66.4827 35.9873C66.5102 34.7498 66.5377 33.6223 66.5652 32.6048C66.5927 31.5872 66.6202 30.7485 66.6477 30.0884C66.7027 29.4284 66.744 29.0984 66.7715 29.0984C66.8265 29.0984 66.8952 29.2359 66.9777 29.5109C67.0877 29.7584 67.1977 30.0334 67.3077 30.336L67.7202 31.5735C68.3527 33.3335 69.109 35.1761 69.989 37.1011C70.8965 38.9987 71.8041 40.965 72.7116 43C73.2616 43 73.8941 43.0275 74.6091 43.0825C75.3242 43.165 75.9567 43.2063 76.5067 43.2063ZM95.7728 17.5482C95.2778 16.7506 94.6178 16.0356 93.7928 15.4031C92.9952 14.7431 92.1565 14.3031 91.2765 14.0831C90.4789 14.1106 89.6539 14.1106 88.8014 14.0831C87.9764 14.0556 87.1376 14.0418 86.2851 14.0418C85.4326 14.0143 84.58 14.0418 83.7275 14.1243C82.9025 14.1793 82.105 14.3031 81.335 14.4956C81.3075 14.5231 81.28 14.5506 81.2525 14.5781C81.2525 14.6056 81.2387 14.6331 81.2112 14.6606C81.2662 17.0531 81.2662 19.4732 81.2112 21.9208C81.1837 24.3408 81.17 26.7471 81.17 29.1397C81.17 31.5322 81.2112 33.8973 81.2937 36.2348C81.3762 38.5449 81.5687 40.7862 81.8712 42.9587C81.8987 42.9312 81.9125 42.9175 81.9125 42.9175C83.645 42.9175 85.4326 42.9175 87.2751 42.9175C89.1177 42.89 90.9464 42.8487 92.7615 42.7937C93.8065 41.5012 94.7965 40.1262 95.7316 38.6686C96.6941 37.2111 97.4503 35.6711 98.0004 34.0485C98.0004 34.021 98.0004 34.0073 98.0004 34.0073C98.0279 34.0073 98.0416 33.9935 98.0416 33.966C98.2891 32.701 98.4266 31.4222 98.4541 30.1297C98.5091 28.8097 98.5641 27.5034 98.6191 26.2109C98.5916 25.7708 98.5504 25.3446 98.4954 24.9321C98.4679 24.4921 98.3854 24.0521 98.2479 23.612C98.0004 22.512 97.6704 21.467 97.2578 20.477C96.8728 19.4595 96.3778 18.4832 95.7728 17.5482ZM91.9777 32.5223C91.8127 32.7698 91.6202 33.0173 91.4002 33.2648C91.2077 33.4848 90.9739 33.6773 90.6989 33.8423C90.5614 33.8973 90.4377 33.966 90.3277 34.0485C90.2177 34.1035 90.0939 34.1173 89.9564 34.0898C89.4614 34.1448 88.9389 34.186 88.3889 34.2135C87.8664 34.241 87.4539 34.1173 87.1514 33.8423C87.0964 32.9073 87.0689 31.9722 87.0689 31.0372C87.0689 30.0747 87.0826 29.1397 87.1101 28.2322C87.1376 27.2971 87.1514 26.4034 87.1514 25.5508C87.1514 24.6983 87.1239 23.9008 87.0689 23.1583V22.9933H87.1101H87.1926C87.6876 22.8833 88.2101 22.842 88.7601 22.8695C89.3102 22.8695 89.8189 22.897 90.2864 22.952C90.7539 23.117 91.139 23.3645 91.4415 23.6945C91.744 23.9971 91.9915 24.3546 92.184 24.7671C92.404 25.1796 92.569 25.6196 92.679 26.0871C92.789 26.5271 92.8852 26.9534 92.9677 27.3659C93.1877 28.3834 93.1877 29.3184 92.9677 30.171C92.7752 31.0235 92.4452 31.8072 91.9777 32.5223Z" fill="white"/>
<path d="M19.0992 58.447C19.4842 56.3845 19.3192 54.6795 18.6042 53.3319C17.8892 51.9844 16.8716 50.9669 15.5516 50.2794C14.8916 49.9768 14.1628 49.7293 13.3653 49.5368C12.5953 49.3443 11.7978 49.2343 10.9728 49.2068C10.1752 49.1518 9.37772 49.1793 8.5802 49.2893C7.78268 49.3718 7.05391 49.5506 6.3939 49.8256C5.07387 50.3756 3.94634 51.2144 3.01132 52.3419C2.1038 53.4694 1.48503 54.7207 1.15503 56.0957C0.825019 57.4708 0.83877 58.8871 1.19628 60.3446C1.58129 61.8021 2.40631 63.1359 3.67134 64.3459C4.05634 64.6759 4.4826 64.9647 4.95012 65.2122C5.41763 65.4597 5.92639 65.6385 6.4764 65.7485C7.05391 65.8585 7.67268 65.9822 8.33269 66.1197C8.99271 66.2297 9.59772 66.4085 10.1477 66.656C10.7253 66.9035 11.2203 67.2335 11.6328 67.646C12.0453 68.031 12.2928 68.5535 12.3753 69.2135C12.5403 70.1761 12.3478 70.8911 11.7978 71.3586C11.2753 71.8261 10.6427 72.0736 9.90023 72.1011C9.18521 72.1011 8.4977 71.8811 7.83768 71.4411C7.20517 71.0011 6.86141 70.3411 6.80641 69.4611C5.87139 69.4886 4.82636 69.4748 3.67134 69.4198C2.51631 69.3373 1.45753 69.3648 0.495012 69.5023V69.6261V69.7498C0.41251 71.0698 0.646265 72.2524 1.19628 73.2974C1.74629 74.3149 2.48881 75.1812 3.42383 75.8962C4.35885 76.6112 5.41763 77.175 6.60015 77.5875C7.81018 77.9725 9.02021 78.1788 10.2302 78.2063C11.0828 78.2338 11.9078 78.165 12.7053 78C13.5303 77.8075 14.2866 77.5187 14.9741 77.1337C15.6891 76.7487 16.3216 76.2537 16.8716 75.6487C17.4217 75.0437 17.8617 74.3149 18.1917 73.4624C18.5217 72.7474 18.7554 72.0049 18.8929 71.2348C19.0579 70.4373 19.1129 69.6536 19.0579 68.8835C19.0304 68.1135 18.8929 67.371 18.6454 66.656C18.3979 65.9135 18.0267 65.226 17.5317 64.5934C16.7341 63.4109 15.7029 62.4346 14.4378 61.6646C13.2003 60.8946 11.8528 60.4271 10.3952 60.2621C9.81773 60.1796 9.28147 60.0283 8.78646 59.8083C8.29144 59.5883 7.93394 59.1483 7.71393 58.4883C7.68643 58.2958 7.65893 58.117 7.63143 57.952C7.63143 57.7595 7.65893 57.567 7.71393 57.3745C7.82393 56.6045 8.18144 56.082 8.78646 55.807C9.41897 55.532 10.0652 55.4632 10.7253 55.6007C11.3853 55.7382 11.949 56.0545 12.4165 56.5495C12.8841 57.0445 13.0353 57.6633 12.8703 58.4058C13.8328 58.6808 14.8641 58.8046 15.9641 58.7771C17.0641 58.722 18.0954 58.612 19.0579 58.447H19.0992ZM39.1204 72.3899C37.2504 72.4449 35.4353 72.4311 33.6753 72.3486C31.9152 72.2386 30.1277 72.1836 28.3127 72.1836L28.2714 72.1424C28.2164 71.4823 28.1614 70.6573 28.1064 69.6673C28.0789 68.6773 28.1339 67.7835 28.2714 66.986C28.4089 66.876 28.6702 66.8072 29.0552 66.7797C29.4402 66.7522 29.8664 66.7385 30.334 66.7385C30.829 66.7385 31.3377 66.7385 31.8602 66.7385C32.3828 66.711 32.8503 66.6422 33.2628 66.5322C33.2353 65.5147 33.249 64.5384 33.304 63.6034C33.359 62.6684 33.3178 61.7334 33.1803 60.7983V60.7571C32.3278 60.7296 31.4752 60.7158 30.6227 60.7158C29.7702 60.7158 28.9314 60.6883 28.1064 60.6333L28.0652 60.5921C27.8727 59.8496 27.8177 59.0658 27.9002 58.2408C28.0102 57.3883 28.0514 56.5632 28.0239 55.7657L28.0652 55.7245H28.1889C29.0964 55.642 30.004 55.6007 30.9115 55.6007C31.819 55.6007 32.7265 55.6145 33.634 55.642C34.5416 55.642 35.4353 55.6282 36.3153 55.6007C37.2229 55.5457 38.1166 55.422 38.9967 55.2295V55.1882C38.9967 54.2257 39.0242 53.2494 39.0792 52.2594C39.1617 51.2694 39.1342 50.2931 38.9967 49.3306C38.9967 49.3031 38.7217 49.2756 38.1716 49.2481C37.6216 49.2206 36.8929 49.2068 35.9853 49.2068C35.0778 49.2068 34.0328 49.2206 32.8503 49.2481C31.6677 49.2756 30.444 49.3031 29.1789 49.3306C27.9139 49.3581 26.6489 49.3993 25.3838 49.4543C24.1463 49.4818 22.9913 49.5231 21.9188 49.5781C21.7813 51.9431 21.6988 54.2944 21.6713 56.632C21.6438 58.9696 21.6438 61.3071 21.6713 63.6447C21.6988 65.9822 21.74 68.3335 21.795 70.6986C21.85 73.0361 21.8775 75.4012 21.8775 77.7937C24.5451 78.0138 27.3226 78.0825 30.2102 78C33.1253 77.89 35.9853 77.8487 38.7904 77.8762C39.0104 77.0512 39.1342 76.1712 39.1617 75.2362C39.1892 74.2737 39.1754 73.3524 39.1204 72.4724V72.3899ZM58.238 49.7843C57.7705 49.7018 57.2755 49.6606 56.7529 49.6606C56.2579 49.6331 55.7492 49.6193 55.2267 49.6193C54.7316 49.6193 54.2366 49.6193 53.7416 49.6193C53.2466 49.5918 52.7654 49.5231 52.2978 49.4131C52.2428 49.4131 52.2153 49.4406 52.2153 49.4956C51.9128 50.6506 51.6516 51.8881 51.4316 53.2082C51.2116 54.5282 50.9778 55.972 50.7303 57.5395C50.4828 59.1071 50.194 60.8258 49.864 62.6959C49.534 64.5384 49.1078 66.5735 48.5853 68.801C48.0352 66.5735 47.6227 64.4147 47.3477 62.3246C47.1002 60.2346 46.9215 58.3233 46.8115 56.5907C46.7015 54.8582 46.6327 53.3732 46.6052 52.1356C46.5777 50.8981 46.509 50.0043 46.399 49.4543C46.1789 49.3993 45.7802 49.3581 45.2027 49.3306C44.6252 49.3031 44.0201 49.3031 43.3876 49.3306C42.7551 49.3306 42.1639 49.3718 41.6138 49.4543C41.0638 49.5368 40.7063 49.6743 40.5413 49.8668V49.9081C40.9263 54.6657 41.5176 59.3958 42.3151 64.0984C43.1126 68.7735 44.1302 73.3386 45.3677 77.7937C45.8077 77.9312 46.3302 78.0138 46.9352 78.0413C47.5677 78.0963 48.1865 78.1238 48.7915 78.1238C49.369 78.1238 49.8915 78.0963 50.359 78.0413C50.8266 77.9862 51.1703 77.9587 51.3903 77.9587C52.0503 75.5662 52.6829 73.2149 53.2879 70.9048C53.8929 68.5673 54.4841 66.2435 55.0617 63.9334C55.6392 61.6234 56.1892 59.2996 56.7117 56.962C57.2617 54.6245 57.7705 52.2319 58.238 49.7843ZM77.1486 72.3899C75.2786 72.4449 73.4636 72.4311 71.7035 72.3486C69.9435 72.2386 68.1559 72.1836 66.3409 72.1836L66.2996 72.1424C66.2446 71.4823 66.1896 70.6573 66.1346 69.6673C66.1071 68.6773 66.1621 67.7835 66.2996 66.986C66.4371 66.876 66.6984 66.8072 67.0834 66.7797C67.4684 66.7522 67.8947 66.7385 68.3622 66.7385C68.8572 66.7385 69.366 66.7385 69.8885 66.7385C70.411 66.711 70.8785 66.6422 71.291 66.5322C71.2635 65.5147 71.2773 64.5384 71.3323 63.6034C71.3873 62.6684 71.346 61.7334 71.2085 60.7983V60.7571C70.356 60.7296 69.5035 60.7158 68.6509 60.7158C67.7984 60.7158 66.9597 60.6883 66.1346 60.6333L66.0934 60.5921C65.9009 59.8496 65.8459 59.0658 65.9284 58.2408C66.0384 57.3883 66.0796 56.5632 66.0521 55.7657L66.0934 55.7245H66.2171C67.1247 55.642 68.0322 55.6007 68.9397 55.6007C69.8472 55.6007 70.7547 55.6145 71.6623 55.642C72.5698 55.642 73.4636 55.6282 74.3436 55.6007C75.2511 55.5457 76.1449 55.422 77.0249 55.2295V55.1882C77.0249 54.2257 77.0524 53.2494 77.1074 52.2594C77.1899 51.2694 77.1624 50.2931 77.0249 49.3306C77.0249 49.3031 76.7499 49.2756 76.1999 49.2481C75.6499 49.2206 74.9211 49.2068 74.0136 49.2068C73.1061 49.2068 72.061 49.2206 70.8785 49.2481C69.696 49.2756 68.4722 49.3031 67.2072 49.3306C65.9421 49.3581 64.6771 49.3993 63.4121 49.4543C62.1745 49.4818 61.0195 49.5231 59.947 49.5781C59.8095 51.9431 59.727 54.2944 59.6995 56.632C59.672 58.9696 59.672 61.3071 59.6995 63.6447C59.727 65.9822 59.7682 68.3335 59.8232 70.6986C59.8782 73.0361 59.9057 75.4012 59.9057 77.7937C62.5733 78.0138 65.3509 78.0825 68.2384 78C71.1535 77.89 74.0136 77.8487 76.8186 77.8762C77.0386 77.0512 77.1624 76.1712 77.1899 75.2362C77.2174 74.2737 77.2036 73.3524 77.1486 72.4724V72.3899ZM95.3999 78.2063C95.8674 78.2063 96.1975 78.1788 96.39 78.1238C96.5825 78.0688 96.7062 78.0275 96.7612 78V77.175C96.7612 76.625 96.7475 76.075 96.72 75.5249C96.72 74.9749 96.72 74.4249 96.72 73.8749C96.72 73.1049 96.72 72.3486 96.72 71.6061C96.7475 70.8636 96.7612 70.0936 96.7612 69.296C96.7612 68.1135 96.7612 66.931 96.7612 65.7485C96.7612 64.5659 96.7475 63.3972 96.72 62.2421V48.9593C95.9225 48.7943 95.0149 48.7118 93.9974 48.7118C92.9524 48.7118 91.9624 48.7943 91.0273 48.9593C90.9998 49.6468 90.9723 50.2931 90.9448 50.8981C90.9448 51.4756 90.9448 52.0531 90.9448 52.6307C90.9448 53.6207 90.9586 54.597 90.9861 55.5595C91.0411 56.4945 91.0686 57.512 91.0686 58.612C91.0686 59.0796 91.0411 59.5608 90.9861 60.0558C90.9311 60.5508 90.8623 60.8258 90.7798 60.8809C90.7523 60.8809 90.6561 60.7296 90.4911 60.4271C90.3261 60.0971 90.1198 59.7121 89.8723 59.2721C89.6523 58.8046 89.4048 58.2958 89.1298 57.7458C88.8548 57.1683 88.5935 56.632 88.346 56.137C88.0985 55.6145 87.8785 55.1607 87.686 54.7757C87.4935 54.3907 87.3698 54.1294 87.3148 53.9919C87.0672 53.4144 86.8472 52.9469 86.6547 52.5894C86.4897 52.2044 86.3247 51.8606 86.1597 51.5581C86.0222 51.2556 85.871 50.9394 85.706 50.6094C85.541 50.2794 85.3622 49.8668 85.1697 49.3718C85.1697 49.3168 85.0184 49.2618 84.7159 49.2068C84.4409 49.1518 84.1109 49.1106 83.7259 49.0831C83.3409 49.0281 82.9559 49.0006 82.5709 49.0006C82.1859 48.9731 81.9109 48.9593 81.7459 48.9593C81.4159 48.9593 81.0859 48.9731 80.7558 49.0006C80.4533 49.0281 80.1646 49.0693 79.8896 49.1243C79.7521 50.8844 79.6558 52.6994 79.6008 54.5695C79.5458 56.412 79.5183 58.282 79.5183 60.1796C79.5183 62.7646 79.5321 65.2397 79.5596 67.6048C79.6146 69.9698 79.6421 72.4586 79.6421 75.0712V77.9587C80.2746 77.9587 80.9209 78 81.5809 78.0825C82.2684 78.165 82.9421 78.2063 83.6022 78.2063C83.9047 78.2063 84.2072 78.1925 84.5097 78.165C84.8122 78.1375 85.1147 78.0825 85.4172 78C85.3897 77.5325 85.376 77.01 85.376 76.4325C85.376 75.8274 85.376 75.2087 85.376 74.5762C85.376 73.4211 85.376 72.2249 85.376 70.9873C85.4035 69.7498 85.431 68.6223 85.4585 67.6048C85.486 66.5872 85.5135 65.7485 85.541 65.0884C85.596 64.4284 85.6372 64.0984 85.6647 64.0984C85.7197 64.0984 85.7885 64.2359 85.871 64.5109C85.981 64.7584 86.091 65.0334 86.201 65.336L86.6135 66.5735C87.246 68.3335 88.0023 70.1761 88.8823 72.1011C89.7898 73.9987 90.6973 75.965 91.6049 78C92.1549 78 92.7874 78.0275 93.5024 78.0825C94.2174 78.165 94.8499 78.2063 95.3999 78.2063Z" fill="white"/>
</svg>
